<svg xmlns="http://www.w3.org/2000/svg" viewBox="140 0 347 362">
  <path d="M312.737 71.4404L463.72 162.453V268.874L313.765 359.003L161.961 267.629V230.042L313.703 321.6L431.527 250.653V180.447L312.705 108.9L252.875 144.926V178.756L220.681 162.453V126.678L312.737 71.4404Z" fill="#FF6320"/>
  <path d="M313.685 0L463.947 90.7889V127.244L313.736 37.361L194.382 109.229V179.615L313.619 251.413L373.487 215.363V181.247L405.681 197.549V233.325H405.673L405.717 233.397L313.605 288.845L162.188 197.666V91.1285L313.685 0Z" fill="#FF6320"/>
  <path d="M312.737 71.4404L463.721 162.453V268.874L313.765 359.004L161.962 267.629V230.042L313.703 321.6L431.527 250.653V180.447L312.705 108.9L252.875 144.926V178.756L220.681 162.453V126.678L312.737 71.4404Z" fill="#FF4F00"/>
</svg>
