<svg width="627" height="549" viewBox="0 0 627 549" fill="none" xmlns="http://www.w3.org/2000/svg">
<path d="M14.318 485.127C15.8508 487.845 17.523 490.214 19.3345 492.234C21.2157 494.255 23.2711 495.822 25.5006 496.937C27.7302 498.052 30.1339 498.609 32.7119 498.609C35.7078 498.609 38.1464 497.843 40.0276 496.31C41.9088 494.777 42.8494 492.687 42.8494 490.039C42.8494 487.74 42.2572 485.894 41.0727 484.5C39.9579 483.107 38.2509 481.888 35.9517 480.843C33.7221 479.728 30.97 478.543 27.6953 477.289C25.9535 476.662 23.933 475.826 21.6337 474.781C19.4042 473.666 17.2791 472.273 15.2586 470.6C13.238 468.859 11.5659 466.768 10.2421 464.33C8.91825 461.822 8.25635 458.826 8.25635 455.342C8.25635 451.161 9.30146 447.573 11.3917 444.577C13.5516 441.512 16.443 439.178 20.0661 437.575C23.7588 435.903 27.8695 435.067 32.3983 435.067C37.0665 435.067 41.0727 435.868 44.4171 437.471C47.8311 439.003 50.6529 440.989 52.8824 443.428C55.1817 445.797 56.9584 448.27 58.2125 450.848L46.5073 457.328C45.5318 455.586 44.3474 454.018 42.9539 452.625C41.6301 451.161 40.0973 450.012 38.3554 449.176C36.6136 448.27 34.6279 447.817 32.3983 447.817C29.472 447.817 27.2773 448.514 25.8142 449.907C24.351 451.231 23.6194 452.799 23.6194 454.61C23.6194 456.422 24.2117 458.024 25.3961 459.418C26.5806 460.742 28.3921 462.031 30.8307 463.285C33.2693 464.469 36.3349 465.688 40.0276 466.943C42.3965 467.779 44.6609 468.824 46.8208 470.078C49.0504 471.332 51.0361 472.865 52.7779 474.676C54.5894 476.418 55.9829 478.508 56.9584 480.947C58.0035 483.316 58.526 486.068 58.526 489.203C58.526 492.757 57.8293 495.927 56.4358 498.714C55.0423 501.501 53.1263 503.87 50.6877 505.821C48.2491 507.702 45.497 509.13 42.4314 510.106C39.4354 511.151 36.2652 511.673 32.9209 511.673C28.4618 511.673 24.2813 510.837 20.3796 509.165C16.5475 507.423 13.2032 505.089 10.3466 502.163C7.48994 499.236 5.26037 496.066 3.65788 492.652L14.318 485.127ZM82.3112 473.109C82.3112 477.777 83.2866 481.922 85.2375 485.546C87.1884 489.169 89.8708 492.025 93.2848 494.115C96.6988 496.206 100.67 497.251 105.199 497.251C109.728 497.251 113.699 496.206 117.113 494.115C120.527 492.025 123.175 489.169 125.056 485.546C127.007 481.922 127.982 477.777 127.982 473.109C127.982 468.441 127.042 464.295 125.161 460.672C123.279 457.049 120.632 454.192 117.218 452.102C113.804 450.012 109.798 448.967 105.199 448.967C100.67 448.967 96.6988 450.012 93.2848 452.102C89.8708 454.192 87.1884 457.049 85.2375 460.672C83.2866 464.295 82.3112 468.441 82.3112 473.109ZM66.5301 473.109C66.5301 467.535 67.5055 462.449 69.4564 457.85C71.4072 453.182 74.1245 449.141 77.6082 445.727C81.0919 442.313 85.1678 439.7 89.836 437.889C94.5738 436.007 99.6948 435.067 105.199 435.067C110.773 435.067 115.894 436.007 120.562 437.889C125.23 439.7 129.306 442.313 132.79 445.727C136.343 449.141 139.061 453.182 140.942 457.85C142.893 462.449 143.868 467.535 143.868 473.109C143.868 478.613 142.893 483.734 140.942 488.472C139.061 493.14 136.378 497.216 132.894 500.7C129.48 504.183 125.404 506.901 120.667 508.851C115.998 510.733 110.843 511.673 105.199 511.673C99.5555 511.673 94.3648 510.733 89.6269 508.851C84.9588 506.901 80.8829 504.183 77.3992 500.7C73.9155 497.216 71.2331 493.14 69.3519 488.472C67.4707 483.734 66.5301 478.613 66.5301 473.109ZM165.036 449.594V436.53H197.748V449.594H165.036ZM165.036 478.439V466.002H196.703V478.439H165.036ZM155.421 436.53H169.844V509.688H155.421V436.53ZM200.973 450.012V436.53H255.319V450.012H235.566V509.688H220.621V450.012H200.973ZM263.81 436.53H278.755V509.688H263.81V436.53ZM272.903 449.176V436.53H287.43C293.213 436.53 298.125 437.471 302.166 439.352C306.277 441.233 309.412 443.915 311.572 447.399C313.732 450.883 314.812 455.028 314.812 459.836C314.812 464.574 313.732 468.719 311.572 472.273C309.412 475.756 306.277 478.439 302.166 480.32C298.125 482.201 293.213 483.142 287.43 483.142H272.903V470.496H287.43C291.401 470.496 294.537 469.59 296.836 467.779C299.135 465.967 300.285 463.32 300.285 459.836C300.285 456.283 299.135 453.635 296.836 451.893C294.537 450.082 291.401 449.176 287.43 449.176H272.903ZM331.286 477.498V464.016H385.004V477.498H331.286ZM375.494 436.53H390.439V509.688H375.494V436.53ZM326.374 436.53H341.319V509.688H326.374V436.53ZM417.787 473.109C417.787 477.777 418.762 481.922 420.713 485.546C422.664 489.169 425.346 492.025 428.76 494.115C432.174 496.206 436.146 497.251 440.674 497.251C445.203 497.251 449.175 496.206 452.589 494.115C456.003 492.025 458.65 489.169 460.531 485.546C462.482 481.922 463.458 477.777 463.458 473.109C463.458 468.441 462.517 464.295 460.636 460.672C458.755 457.049 456.107 454.192 452.693 452.102C449.279 450.012 445.273 448.967 440.674 448.967C436.146 448.967 432.174 450.012 428.76 452.102C425.346 454.192 422.664 457.049 420.713 460.672C418.762 464.295 417.787 468.441 417.787 473.109ZM402.005 473.109C402.005 467.535 402.981 462.449 404.932 457.85C406.883 453.182 409.6 449.141 413.084 445.727C416.567 442.313 420.643 439.7 425.311 437.889C430.049 436.007 435.17 435.067 440.674 435.067C446.248 435.067 451.369 436.007 456.038 437.889C460.706 439.7 464.782 442.313 468.265 445.727C471.819 449.141 474.536 453.182 476.417 457.85C478.368 462.449 479.343 467.535 479.343 473.109C479.343 478.613 478.368 483.734 476.417 488.472C474.536 493.14 471.853 497.216 468.37 500.7C464.956 504.183 460.88 506.901 456.142 508.851C451.474 510.733 446.318 511.673 440.674 511.673C435.031 511.673 429.84 510.733 425.102 508.851C420.434 506.901 416.358 504.183 412.875 500.7C409.391 497.216 406.708 493.14 404.827 488.472C402.946 483.734 402.005 478.613 402.005 473.109ZM542.943 436.53H557.366V513.345L505.319 464.33V509.688H490.897V432.872L542.943 481.888V436.53ZM582.875 509.688V497.042H619.767V509.688H582.875ZM582.875 449.176V436.53H619.767V449.176H582.875ZM582.875 477.08V464.643H617.677V477.08H582.875ZM573.26 436.53H587.683V509.688H573.26V436.53Z" fill="#192A52"/>
<path d="M312.737 71.4404L463.72 162.453V268.874L313.765 359.003L161.961 267.629V230.042L313.703 321.6L431.527 250.653V180.447L312.705 108.9L252.875 144.926V178.756L220.681 162.453V126.678L312.737 71.4404Z" fill="#FF6320"/>
<path d="M313.685 0L463.947 90.7889V127.244L313.736 37.361L194.382 109.229V179.615L313.619 251.413L373.487 215.363V181.247L405.681 197.549V233.325H405.673L405.717 233.397L313.605 288.845L162.188 197.666V91.1285L313.685 0Z" fill="#FF6320"/>
<path d="M312.737 71.4404L463.721 162.453V268.874L313.765 359.004L161.962 267.629V230.042L313.703 321.6L431.527 250.653V180.447L312.705 108.9L252.875 144.926V178.756L220.681 162.453V126.678L312.737 71.4404Z" fill="#FF4F00"/>
</svg>
